<svg id="Layer_1" data-name="Layer 1" xmlns="http://www.w3.org/2000/svg" viewBox="0 0 108 144"><defs><style>.cls-1{fill:#fff;}</style></defs><rect class="cls-1" x="4.02" y="4.02" width="78.02" height="106.5" rx="8.19"/><path d="M83.85,8A4.17,4.17,0,0,1,88,12.2v90.13a4.17,4.17,0,0,1-4.17,4.17H22.2A4.17,4.17,0,0,1,18,102.33V12.2A4.17,4.17,0,0,1,22.2,8H83.85m0-8H22.2A12.2,12.2,0,0,0,10,12.2v90.13a12.2,12.2,0,0,0,12.2,12.2H83.85a12.2,12.2,0,0,0,12.2-12.2V12.2A12.2,12.2,0,0,0,83.85,0Z" transform="translate(-10 0)"/><rect class="cls-1" x="25.97" y="33.49" width="78.02" height="106.5" rx="8.19"/><path d="M105.8,37.5A4.17,4.17,0,0,1,110,41.67V131.8A4.17,4.17,0,0,1,105.8,136H44.15A4.17,4.17,0,0,1,40,131.8V41.67a4.17,4.17,0,0,1,4.17-4.17H105.8m0-8H44.15A12.2,12.2,0,0,0,32,41.67V131.8A12.2,12.2,0,0,0,44.15,144H105.8A12.2,12.2,0,0,0,118,131.8V41.67a12.2,12.2,0,0,0-12.2-12.2Z" transform="translate(-10 0)"/></svg>